<svg clip-rule="evenodd" fill-rule="evenodd" stroke-linejoin="round" stroke-miterlimit="2" viewBox="0 0 584 163" xmlns="http://www.w3.org/2000/svg"><path d="m0 0h583.707v162.851h-583.707z" fill="none"/><g fill-rule="nonzero"><path d="m.629 0h-.094v-.329h-.359v.329h-.093v-.711h.093v.306h.359v-.306h.094z" fill="#363273" transform="matrix(120.822 0 0 120.822 21.5685415 126.154599)"/><path d="m.288.01c-.072 0-.13-.024-.175-.071s-.068-.11-.068-.189v-.016c0-.053.01-.099.03-.14.02-.042.048-.074.084-.097s.075-.035.117-.035c.069 0 .122.023.161.068.038.045.057.11.057.194v.038h-.358c.001.052.016.094.045.126.03.032.067.048.111.048.032 0 .059-.006.082-.019.022-.014.041-.031.058-.052l.055.043c-.044.068-.111.102-.199.102zm-.012-.474c-.036 0-.067.013-.091.04-.025.026-.04.064-.046.111h.264v-.006c-.002-.046-.015-.082-.037-.107s-.052-.038-.09-.038z" fill="#363273" transform="matrix(120.822 0 0 120.822 107.704559 126.154599)"/><path d="m.395 0c-.006-.01-.01-.029-.013-.056-.042.044-.092.066-.151.066-.052 0-.094-.015-.128-.044-.033-.03-.05-.067-.05-.112 0-.055.021-.098.063-.129.042-.03.101-.045.176-.045h.088v-.042c0-.031-.009-.057-.028-.075-.019-.019-.047-.028-.083-.028-.033 0-.06.008-.081.024-.022.016-.033.036-.033.059h-.091c0-.026.009-.052.028-.076.019-.025.044-.044.076-.059.032-.014.068-.021.106-.021.061 0 .108.015.143.046.034.03.052.072.054.125v.243c0 .049.006.088.018.116v.008zm-.15-.069c.028 0 .055-.007.08-.022.026-.014.044-.034.055-.057v-.108h-.07c-.111 0-.166.032-.166.097 0 .028.009.05.028.066s.043.024.073.024z" fill="#363273" transform="matrix(120.822 0 0 120.822 171.720082 126.154599)"/><path d="m246.6196535 35.538099h10.87398v90.6165h-10.87398z" fill="#363273" stroke-width="120.822"/><path d="m.191-.656v.128h.099v.07h-.099v.327c0 .021.004.037.013.048.009.01.024.016.045.016.01 0 .025-.002.043-.006v.073c-.024.007-.047.01-.069.01-.041 0-.071-.012-.092-.037-.02-.024-.03-.059-.03-.104v-.327h-.097v-.07h.097v-.128z" fill="#363273" transform="matrix(120.822 0 0 120.822 266.7566535 126.154599)"/><path d="m.159-.464c.04-.05.092-.074.156-.074.112 0 .168.063.169.189v.349h-.09v-.35c-.001-.038-.009-.066-.027-.084-.017-.018-.043-.027-.079-.027-.03 0-.055.007-.078.023-.022.016-.039.036-.051.062v.376h-.091v-.75h.091z" fill="#363273" transform="matrix(120.822 0 0 120.822 306.2251735 126.154599)"/><path d="m.176-.278v.278h-.093v-.711h.262c.078 0 .138.02.183.06.044.039.066.092.066.157 0 .069-.022.122-.065.16-.043.037-.105.056-.185.056zm0-.077h.169c.05 0 .088-.012.115-.035.027-.024.04-.058.04-.103 0-.042-.013-.076-.04-.101-.027-.026-.063-.039-.11-.04h-.174z" fill="#b0afaf" transform="matrix(120.822 0 0 120.822 372.76789 126.154599)"/><path d="m.324-.447c-.014-.003-.029-.004-.045-.004-.059 0-.099.026-.12.076v.375h-.091v-.528h.088l.002.061c.029-.047.071-.071.126-.071.017 0 .031.002.04.007z" fill="#b0afaf" transform="matrix(120.822 0 0 120.822 448.9965035 126.154599)"/><path d="m.044-.269c0-.052.011-.098.031-.14.02-.041.049-.073.085-.095.036-.023.078-.034.124-.034.072 0 .13.025.175.075.044.049.066.116.066.198v.007c0 .051-.009.097-.029.138s-.048.073-.085.096c-.036.022-.078.034-.126.034-.071 0-.129-.025-.174-.075-.044-.05-.067-.116-.067-.198zm.091.011c0 .058.014.105.041.141.027.035.064.053.109.053.046 0 .083-.018.11-.054s.04-.086.04-.151c0-.058-.014-.105-.041-.141-.028-.036-.064-.054-.11-.054-.044 0-.08.018-.108.053-.027.036-.041.087-.041.153z" fill="#b0afaf" transform="matrix(120.822 0 0 120.822 488.696599 126.154599)"/></g></svg>