<?xml version="1.0" encoding="UTF-8"?>
<svg xmlns="http://www.w3.org/2000/svg" xmlns:xlink="http://www.w3.org/1999/xlink" width="761.03pt" height="244.86pt" viewBox="0 0 761.03 244.86" version="1.1">
<defs>
<clipPath id="clip1">
  <path d="M 643 38 L 761.03125 38 L 761.03125 169 L 643 169 Z M 643 38 "/>
</clipPath>
<clipPath id="clip2">
  <path d="M 93 197 L 134 197 L 134 244.859375 L 93 244.859375 Z M 93 197 "/>
</clipPath>
<clipPath id="clip3">
  <path d="M 289 197 L 333 197 L 333 244.859375 L 289 244.859375 Z M 289 197 "/>
</clipPath>
<clipPath id="clip4">
  <path d="M 503 197 L 553 197 L 553 244.859375 L 503 244.859375 Z M 503 197 "/>
</clipPath>
<clipPath id="clip5">
  <path d="M 558 197 L 603 197 L 603 244.859375 L 558 244.859375 Z M 558 197 "/>
</clipPath>
<clipPath id="clip6">
  <path d="M 712 198 L 761.03125 198 L 761.03125 244 L 712 244 Z M 712 198 "/>
</clipPath>
</defs>
<g id="surface1">
<path style=" stroke:none;fill-rule:nonzero;fill:rgb(100%,100%,100%);fill-opacity:1;" d="M 352.105469 114.289063 C 352.105469 118.28125 352.855469 121.273438 354.355469 123.265625 C 355.859375 125.261719 358.109375 126.257813 361.117188 126.257813 C 366.671875 126.257813 371.210938 122.066406 374.730469 113.6875 C 378.246094 105.304688 380.007813 98.222656 380.007813 92.4375 C 380.007813 88.042969 379.167969 84.863281 377.488281 82.890625 C 375.804688 80.917969 373.867188 79.933594 371.671875 79.933594 C 365.753906 79.933594 361.011719 84.328125 357.449219 93.109375 C 353.886719 101.894531 352.105469 108.957031 352.105469 114.289063 M 332.402344 107.496094 C 332.402344 102.792969 333.78125 97.738281 336.539063 92.335938 C 339.296875 86.933594 343.621094 82.445313 349.515625 78.855469 C 355.410156 75.269531 362.414063 73.476563 370.527344 73.476563 C 380.613281 73.476563 388.019531 75.875 392.75 80.671875 C 397.480469 85.46875 399.84375 91.273438 399.84375 98.085938 C 399.84375 107.453125 396.214844 115.578125 388.949219 122.460938 C 381.6875 129.339844 372.410156 132.78125 361.117188 132.78125 C 352.910156 132.78125 346.074219 130.707031 340.605469 126.5625 C 335.136719 122.414063 332.402344 116.0625 332.402344 107.496094 "/>
<path style=" stroke:none;fill-rule:nonzero;fill:rgb(100%,100%,100%);fill-opacity:1;" d="M 435.519531 83.09375 L 428.792969 113.214844 C 424.890625 130.605469 419.703125 143.585938 413.226563 152.144531 C 406.75 160.707031 397.953125 164.988281 386.835938 164.988281 C 381.550781 164.988281 377.683594 163.980469 375.238281 161.960938 C 372.796875 159.945313 371.574219 157.5 371.574219 154.632813 C 371.574219 152.03125 372.527344 149.847656 374.433594 148.078125 C 376.335938 146.308594 378.542969 145.421875 381.054688 145.421875 C 386.257813 145.421875 389.257813 148.199219 390.066406 153.761719 C 390.46875 156.582031 391.699219 157.996094 393.761719 157.996094 C 395.871094 157.996094 397.785156 156.113281 399.511719 152.347656 C 401.238281 148.582031 403.332031 140.984375 405.796875 129.554688 L 407.882813 119.804688 C 408.511719 117.472656 408.957031 115.636719 409.226563 114.289063 L 416.015625 83.09375 L 407.277344 83.09375 L 409.5625 75.628906 L 417.566406 75.628906 C 421.777344 60.300781 426.699219 50.136719 432.324219 45.136719 C 437.949219 40.136719 444.660156 37.640625 452.460938 37.640625 C 457.660156 37.640625 461.90625 38.648438 465.203125 40.664063 C 468.496094 42.683594 470.144531 45.371094 470.144531 48.734375 C 470.144531 50.976563 469.347656 52.9375 467.757813 54.617188 C 466.164063 56.296875 464.140625 57.136719 461.675781 57.136719 C 458.132813 57.136719 455.085938 54.648438 452.527344 49.675781 C 450.648438 45.953125 448.742188 44.09375 446.8125 44.09375 C 444.570313 44.09375 442.847656 47.074219 441.636719 53.035156 L 437.199219 75.628906 L 447.214844 75.628906 L 444.929688 83.09375 L 435.519531 83.09375 "/>
<path style=" stroke:none;fill-rule:nonzero;fill:rgb(100%,100%,100%);fill-opacity:1;" d="M 107.582031 106.902344 L 93.027344 68.238281 L 78.46875 106.902344 Z M 67.097656 5.6875 L 119.867188 5.6875 L 186.964844 166.039063 L 129.191406 166.039063 L 120.777344 144.65625 L 65.050781 144.65625 L 56.863281 166.039063 L 0 166.039063 L 67.097656 5.6875 "/>
<path style=" stroke:none;fill-rule:nonzero;fill:rgb(100%,100%,100%);fill-opacity:1;" d="M 193.777344 0.00390625 L 245.40625 0.00390625 L 245.40625 166.039063 L 193.777344 166.039063 L 193.777344 0.00390625 "/>
<path style=" stroke:none;fill-rule:nonzero;fill:rgb(100%,100%,100%);fill-opacity:1;" d="M 268.609375 0.00390625 L 320.238281 0.00390625 L 320.238281 166.039063 L 268.609375 166.039063 L 268.609375 0.00390625 "/>
<path style=" stroke:none;fill-rule:nonzero;fill:rgb(100%,100%,100%);fill-opacity:1;" d="M 479.515625 94.621094 L 479.515625 6.824219 L 533.648438 6.824219 L 533.648438 93.941406 C 533.648438 113.726563 543.882813 122.144531 558.210938 122.144531 C 572.542969 122.144531 582.773438 114.410156 582.773438 95.074219 L 582.773438 6.824219 L 636.90625 6.824219 L 636.90625 93.484375 C 636.90625 147.84375 605.292969 169.226563 557.757813 169.226563 C 510.222656 169.226563 479.515625 147.386719 479.515625 94.621094 "/>
<g clip-path="url(#clip1)" clip-rule="nonzero">
<path style=" stroke:none;fill-rule:nonzero;fill:rgb(100%,100%,100%);fill-opacity:1;" d="M 643.441406 151.027344 L 660.953125 121.6875 C 675.96875 131.011719 692.796875 135.5625 706.898438 135.5625 C 711.902344 135.5625 714.402344 134.425781 714.402344 131.46875 L 714.402344 131.011719 C 714.402344 128.511719 712.132813 126.917969 699.621094 123.734375 C 668.230469 116.003906 648.898438 107.585938 648.898438 81.886719 L 648.898438 81.429688 C 648.898438 54.132813 670.734375 38.894531 703.03125 38.894531 C 723.503906 38.894531 743.746094 44.128906 758.757813 53.226563 L 742.378906 83.933594 C 729.191406 76.652344 713.265625 72.332031 702.804688 72.332031 C 697.800781 72.332031 695.527344 73.695313 695.527344 76.195313 L 695.527344 76.652344 C 695.527344 79.152344 698.253906 80.746094 710.765625 83.933594 C 742.15625 91.664063 761.03125 100.308594 761.03125 125.78125 L 761.03125 126.238281 C 761.03125 153.304688 740.789063 168.996094 707.128906 168.996094 C 683.019531 168.996094 661.179688 162.855469 643.441406 151.027344 "/>
</g>
<path style=" stroke:none;fill-rule:nonzero;fill:rgb(100%,100%,100%);fill-opacity:1;" d="M 20.902344 220.324219 C 25.1875 220.324219 27.652344 218.246094 27.652344 214.933594 L 27.652344 214.804688 C 27.652344 211.234375 25.054688 209.417969 20.835938 209.417969 L 12.59375 209.417969 L 12.59375 220.324219 Z M 0 198.511719 L 21.484375 198.511719 C 28.429688 198.511719 33.234375 200.328125 36.285156 203.445313 C 38.945313 206.042969 40.3125 209.546875 40.3125 214.027344 L 40.3125 214.15625 C 40.3125 221.101563 36.609375 225.710938 30.964844 228.113281 L 41.804688 243.949219 L 27.261719 243.949219 L 18.109375 230.1875 L 12.59375 230.1875 L 12.59375 243.949219 L 0 243.949219 L 0 198.511719 "/>
<path style=" stroke:none;fill-rule:nonzero;fill:rgb(100%,100%,100%);fill-opacity:1;" d="M 49.71875 198.511719 L 86.261719 198.511719 L 86.261719 209.222656 L 62.179688 209.222656 L 62.179688 216.101563 L 83.992188 216.101563 L 83.992188 226.035156 L 62.179688 226.035156 L 62.179688 233.238281 L 86.585938 233.238281 L 86.585938 243.949219 L 49.71875 243.949219 L 49.71875 198.511719 "/>
<g clip-path="url(#clip2)" clip-rule="nonzero">
<path style=" stroke:none;fill-rule:nonzero;fill:rgb(100%,100%,100%);fill-opacity:1;" d="M 93.917969 237.199219 L 100.925781 228.824219 C 105.40625 232.398438 110.40625 234.277344 115.660156 234.277344 C 119.035156 234.277344 120.855469 233.109375 120.855469 231.164063 L 120.855469 231.03125 C 120.855469 229.148438 119.363281 228.113281 113.195313 226.683594 C 103.523438 224.476563 96.058594 221.75 96.058594 212.402344 L 96.058594 212.273438 C 96.058594 203.835938 102.746094 197.734375 113.648438 197.734375 C 121.375 197.734375 127.410156 199.808594 132.34375 203.769531 L 126.046875 212.664063 C 121.894531 209.742188 117.351563 208.183594 113.324219 208.183594 C 110.273438 208.183594 108.78125 209.484375 108.78125 211.105469 L 108.78125 211.234375 C 108.78125 213.3125 110.339844 214.222656 116.636719 215.648438 C 127.085938 217.921875 133.578125 221.296875 133.578125 229.800781 L 133.578125 229.929688 C 133.578125 239.210938 126.242188 244.730469 115.207031 244.730469 C 107.15625 244.730469 99.5 242.195313 93.917969 237.199219 "/>
</g>
<path style=" stroke:none;fill-rule:nonzero;fill:rgb(100%,100%,100%);fill-opacity:1;" d="M 142.726563 198.511719 L 179.269531 198.511719 L 179.269531 209.222656 L 155.1875 209.222656 L 155.1875 216.101563 L 177 216.101563 L 177 226.035156 L 155.1875 226.035156 L 155.1875 233.238281 L 179.59375 233.238281 L 179.59375 243.949219 L 142.726563 243.949219 L 142.726563 198.511719 "/>
<path style=" stroke:none;fill-rule:nonzero;fill:rgb(100%,100%,100%);fill-opacity:1;" d="M 215.8125 226.035156 L 210.746094 213.117188 L 205.617188 226.035156 Z M 204.777344 198.1875 L 216.914063 198.1875 L 236.257813 243.949219 L 222.757813 243.949219 L 219.445313 235.835938 L 201.917969 235.835938 L 198.671875 243.949219 L 185.433594 243.949219 L 204.777344 198.1875 "/>
<path style=" stroke:none;fill-rule:nonzero;fill:rgb(100%,100%,100%);fill-opacity:1;" d="M 263.320313 220.324219 C 267.605469 220.324219 270.070313 218.246094 270.070313 214.933594 L 270.070313 214.804688 C 270.070313 211.234375 267.476563 209.417969 263.253906 209.417969 L 255.011719 209.417969 L 255.011719 220.324219 Z M 242.417969 198.511719 L 263.90625 198.511719 C 270.851563 198.511719 275.65625 200.328125 278.703125 203.445313 C 281.367188 206.042969 282.730469 209.546875 282.730469 214.027344 L 282.730469 214.15625 C 282.730469 221.101563 279.03125 225.710938 273.382813 228.113281 L 284.222656 243.949219 L 269.683594 243.949219 L 260.53125 230.1875 L 255.011719 230.1875 L 255.011719 243.949219 L 242.417969 243.949219 L 242.417969 198.511719 "/>
<g clip-path="url(#clip3)" clip-rule="nonzero">
<path style=" stroke:none;fill-rule:nonzero;fill:rgb(100%,100%,100%);fill-opacity:1;" d="M 289.28125 221.359375 L 289.28125 221.230469 C 289.28125 207.988281 299.472656 197.601563 313.234375 197.601563 C 322.515625 197.601563 328.488281 201.496094 332.511719 207.082031 L 323.035156 214.414063 C 320.4375 211.171875 317.453125 209.09375 313.101563 209.09375 C 306.742188 209.09375 302.261719 214.480469 302.261719 221.101563 L 302.261719 221.230469 C 302.261719 228.046875 306.742188 233.371094 313.101563 233.371094 C 317.84375 233.371094 320.632813 231.164063 323.359375 227.851563 L 332.835938 234.601563 C 328.550781 240.511719 322.777344 244.859375 312.714844 244.859375 C 299.730469 244.859375 289.28125 234.925781 289.28125 221.359375 "/>
</g>
<path style=" stroke:none;fill-rule:nonzero;fill:rgb(100%,100%,100%);fill-opacity:1;" d="M 339.972656 198.511719 L 352.566406 198.511719 L 352.566406 215.519531 L 368.726563 215.519531 L 368.726563 198.511719 L 381.320313 198.511719 L 381.320313 243.949219 L 368.726563 243.949219 L 368.726563 226.683594 L 352.566406 226.683594 L 352.566406 243.949219 L 339.972656 243.949219 L 339.972656 198.511719 "/>
<path style=" stroke:none;fill-rule:nonzero;fill:rgb(100%,100%,100%);fill-opacity:1;" d="M 432.007813 221.101563 C 436.488281 221.101563 439.214844 218.765625 439.214844 215.195313 L 439.214844 215.066406 C 439.214844 211.171875 436.488281 209.09375 431.945313 209.09375 L 426.035156 209.09375 L 426.035156 221.101563 Z M 413.445313 198.511719 L 432.917969 198.511719 C 444.40625 198.511719 451.808594 204.417969 451.808594 214.480469 L 451.808594 214.609375 C 451.808594 225.320313 443.5625 230.96875 432.269531 230.96875 L 426.035156 230.96875 L 426.035156 243.949219 L 413.445313 243.949219 L 413.445313 198.511719 "/>
<path style=" stroke:none;fill-rule:nonzero;fill:rgb(100%,100%,100%);fill-opacity:1;" d="M 479.78125 220.324219 C 484.0625 220.324219 486.53125 218.246094 486.53125 214.933594 L 486.53125 214.804688 C 486.53125 211.234375 483.933594 209.417969 479.714844 209.417969 L 471.46875 209.417969 L 471.46875 220.324219 Z M 458.878906 198.511719 L 480.363281 198.511719 C 487.308594 198.511719 492.113281 200.328125 495.164063 203.445313 C 497.824219 206.042969 499.1875 209.546875 499.1875 214.027344 L 499.1875 214.15625 C 499.1875 221.101563 495.488281 225.710938 489.839844 228.113281 L 500.679688 243.949219 L 486.140625 243.949219 L 476.988281 230.1875 L 471.46875 230.1875 L 471.46875 243.949219 L 458.878906 243.949219 L 458.878906 198.511719 "/>
<g clip-path="url(#clip4)" clip-rule="nonzero">
<path style=" stroke:none;fill-rule:nonzero;fill:rgb(100%,100%,100%);fill-opacity:1;" d="M 539.992188 221.359375 L 539.992188 221.230469 C 539.992188 214.675781 535.253906 208.960938 528.308594 208.960938 C 521.429688 208.960938 516.820313 214.546875 516.820313 221.101563 L 516.820313 221.230469 C 516.820313 227.789063 521.558594 233.5 528.4375 233.5 C 535.382813 233.5 539.992188 227.917969 539.992188 221.359375 Z M 503.902344 221.359375 L 503.902344 221.230469 C 503.902344 208.183594 514.417969 197.601563 528.4375 197.601563 C 542.460938 197.601563 552.84375 208.054688 552.84375 221.101563 L 552.84375 221.230469 C 552.84375 234.277344 542.328125 244.859375 528.308594 244.859375 C 514.285156 244.859375 503.902344 234.40625 503.902344 221.359375 "/>
</g>
<g clip-path="url(#clip5)" clip-rule="nonzero">
<path style=" stroke:none;fill-rule:nonzero;fill:rgb(100%,100%,100%);fill-opacity:1;" d="M 558.292969 221.359375 L 558.292969 221.230469 C 558.292969 207.988281 568.679688 197.601563 582.765625 197.601563 C 590.746094 197.601563 596.394531 200.070313 601.199219 204.222656 L 593.800781 213.117188 C 590.554688 210.390625 587.308594 208.832031 582.828125 208.832031 C 576.273438 208.832031 571.210938 214.351563 571.210938 221.296875 L 571.210938 221.425781 C 571.210938 228.761719 576.335938 234.019531 583.542969 234.019531 C 586.59375 234.019531 588.929688 233.371094 590.8125 232.136719 L 590.8125 226.617188 L 581.855469 226.617188 L 581.855469 217.402344 L 602.757813 217.402344 L 602.757813 237.847656 C 597.953125 241.808594 591.265625 244.859375 583.023438 244.859375 C 568.871094 244.859375 558.292969 235.121094 558.292969 221.359375 "/>
</g>
<path style=" stroke:none;fill-rule:nonzero;fill:rgb(100%,100%,100%);fill-opacity:1;" d="M 633.714844 220.324219 C 638 220.324219 640.464844 218.246094 640.464844 214.933594 L 640.464844 214.804688 C 640.464844 211.234375 637.867188 209.417969 633.648438 209.417969 L 625.40625 209.417969 L 625.40625 220.324219 Z M 612.8125 198.511719 L 634.300781 198.511719 C 641.242188 198.511719 646.046875 200.328125 649.097656 203.445313 C 651.761719 206.042969 653.125 209.546875 653.125 214.027344 L 653.125 214.15625 C 653.125 221.101563 649.421875 225.710938 643.777344 228.113281 L 654.617188 243.949219 L 640.074219 243.949219 L 630.921875 230.1875 L 625.40625 230.1875 L 625.40625 243.949219 L 612.8125 243.949219 L 612.8125 198.511719 "/>
<path style=" stroke:none;fill-rule:nonzero;fill:rgb(100%,100%,100%);fill-opacity:1;" d="M 687.957031 226.035156 L 682.894531 213.117188 L 677.765625 226.035156 Z M 676.921875 198.1875 L 689.0625 198.1875 L 708.402344 243.949219 L 694.902344 243.949219 L 691.59375 235.835938 L 674.066406 235.835938 L 670.820313 243.949219 L 657.578125 243.949219 L 676.921875 198.1875 "/>
<g clip-path="url(#clip6)" clip-rule="nonzero">
<path style=" stroke:none;fill-rule:nonzero;fill:rgb(100%,100%,100%);fill-opacity:1;" d="M 712.738281 198.511719 L 726.046875 198.511719 L 736.882813 216.101563 L 747.726563 198.511719 L 761.03125 198.511719 L 761.03125 243.949219 L 748.503906 243.949219 L 748.503906 217.855469 L 736.882813 235.640625 L 736.625 235.640625 L 725.070313 217.984375 L 725.070313 243.949219 L 712.738281 243.949219 L 712.738281 198.511719 "/>
</g>
</g>
</svg>
