<svg clip-rule="evenodd" fill-rule="evenodd" stroke-linejoin="round" stroke-miterlimit="2" viewBox="0 0 180 50" xmlns="http://www.w3.org/2000/svg"><g transform="matrix(4.3467737566 0 0 1 3.064529 5)"><path d="m40 2c0-1.104-.206-2-.46-2h-39.08c-.254 0-.46.896-.46 2v36c0 1.104.206 2 .46 2h39.08c.254 0 .46-.896.46-2z" fill="#4285f4"/><g fill="none"><path d="m40 2c0-1.104-.206-2-.46-2h-39.08c-.254 0-.46.896-.46 2v36c0 1.104.206 2 .46 2h39.08c.254 0 .46-.896.46-2z"/><path d="m40 2c0-1.104-.206-2-.46-2h-39.08c-.254 0-.46.896-.46 2v36c0 1.104.206 2 .46 2h39.08c.254 0 .46-.896.46-2z"/><path d="m40 2c0-1.104-.206-2-.46-2h-39.08c-.254 0-.46.896-.46 2v36c0 1.104.206 2 .46 2h39.08c.254 0 .46-.896.46-2z"/></g></g><g transform="matrix(4.5223455272 0 0 1 -18.549064636 1)"><path d="m43 6c0-.552-.099-1-.221-1h-37.558c-.122 0-.221.448-.221 1v36c0 .552.099 1 .221 1h37.558c.122 0 .221-.448.221-1z" fill="#fff"/><g fill="none"><path d="m43 6c0-.552-.099-1-.221-1h-37.558c-.122 0-.221.448-.221 1v36c0 .552.099 1 .221 1h37.558c.122 0 .221-.448.221-1z"/><path d="m43 6c0-.552-.099-1-.221-1h-37.558c-.122 0-.221.448-.221 1v36c0 .552.099 1 .221 1h37.558c.122 0 .221-.448.221-1z"/><path d="m43 6c0-.552-.099-1-.221-1h-37.558c-.122 0-.221.448-.221 1v36c0 .552.099 1 .221 1h37.558c.122 0 .221-.448.221-1z"/></g></g><g transform="matrix(.998134 0 0 1 14.044003 16)"><path d="m17.64 9.205c0-.639-.057-1.252-.164-1.841h-8.476v3.481h4.844c-.209 1.125-.843 2.078-1.796 2.716v2.259h2.908c1.702-1.567 2.684-3.875 2.684-6.615z" fill="#4285f4"/><path d="m9 18c2.43 0 4.467-.806 5.956-2.18l-2.908-2.259c-.806.54-1.837.859-3.048.859-2.344 0-4.328-1.583-5.036-3.71h-3.007v2.332c1.481 2.941 4.525 4.958 8.043 4.958z" fill="#34a853"/><path d="m3.964 10.71c-.18-.54-.282-1.117-.282-1.71s.102-1.17.282-1.71v-2.332h-3.007c-.609 1.215-.957 2.59-.957 4.042s.348 2.827.957 4.042z" fill="#fbbc05"/><path d="m9 3.58c1.321 0 2.508.454 3.44 1.345l2.582-2.581c-1.559-1.452-3.596-2.344-6.022-2.344-3.518 0-6.562 2.017-8.043 4.958l3.007 2.332c.708-2.127 2.692-3.71 5.036-3.71z" fill="#ea4335"/><path d="m0 0h18v18h-18z" fill="none"/></g><g fill-opacity=".54" fill-rule="nonzero"><path d="m.444-.183c0-.031-.011-.055-.033-.072s-.062-.034-.119-.052c-.057-.017-.103-.036-.137-.057-.065-.041-.097-.094-.097-.159 0-.058.023-.105.07-.142s.108-.056.182-.056c.05 0 .094.009.132.028.039.018.07.044.092.078.022.033.033.071.033.112h-.123c0-.038-.012-.067-.035-.088s-.057-.031-.1-.031c-.04 0-.072.009-.094.026s-.033.041-.033.072c0 .026.012.048.036.065.024.018.064.035.119.051s.1.035.133.056c.034.021.058.045.074.072.016.028.023.059.023.096 0 .059-.022.106-.068.141-.045.035-.107.053-.185.053-.051 0-.098-.01-.141-.029-.044-.019-.077-.045-.101-.079-.024-.033-.036-.072-.036-.117h.124c0 .041.013.072.04.094.026.022.065.033.114.033.043 0 .076-.009.097-.026.022-.017.033-.04.033-.069z" transform="matrix(15 0 0 15 40.699 29.0649)"/><path d="m.187 0h-.119v-.528h.119zm-.126-.666c0-.018.006-.033.017-.045.012-.012.028-.018.05-.018.021 0 .038.006.05.018.011.012.017.027.017.045s-.006.033-.017.045c-.012.012-.029.018-.05.018-.022 0-.038-.006-.05-.018-.011-.012-.017-.027-.017-.045z" transform="matrix(15 0 0 15 49.752 29.0649)"/><path d="m.04-.268c0-.082.019-.148.058-.197.038-.049.09-.073.153-.073.061 0 .108.021.143.063l.005-.053h.107v.512c0 .069-.022.124-.065.164s-.101.06-.174.06c-.039 0-.077-.008-.114-.024s-.065-.037-.084-.063l.056-.072c.036.044.081.065.135.065.039 0 .07-.01.093-.032.023-.021.034-.052.034-.094v-.035c-.034.038-.08.057-.137.057-.061 0-.112-.025-.151-.074s-.059-.117-.059-.204zm.118.01c0 .053.011.095.033.125.021.031.051.046.09.046.048 0 .083-.02.106-.061v-.233c-.022-.04-.057-.06-.105-.06-.039 0-.07.016-.091.046-.022.031-.033.077-.033.137z" transform="matrix(15 0 0 15 53.583 29.0649)"/><path d="m.171-.528.003.061c.039-.047.091-.071.154-.071.11 0 .166.063.168.189v.349h-.119v-.342c0-.034-.007-.059-.021-.075-.015-.016-.038-.024-.071-.024-.048 0-.084.022-.107.065v.376h-.119v-.528z" transform="matrix(15 0 0 15 62.086 29.0649)"/><path d="m.187 0h-.119v-.528h.119zm-.126-.666c0-.018.006-.033.017-.045.012-.012.028-.018.05-.018.021 0 .038.006.05.018.011.012.017.027.017.045s-.006.033-.017.045c-.012.012-.029.018-.05.018-.022 0-.038-.006-.05-.018-.011-.012-.017-.027-.017-.045z" transform="matrix(15 0 0 15 74.164 29.0649)"/><path d="m.171-.528.003.061c.039-.047.091-.071.154-.071.11 0 .166.063.168.189v.349h-.119v-.342c0-.034-.007-.059-.021-.075-.015-.016-.038-.024-.071-.024-.048 0-.084.022-.107.065v.376h-.119v-.528z" transform="matrix(15 0 0 15 77.994 29.0649)"/><path d="m.525-.164.084-.364h.116l-.144.528h-.098l-.113-.363-.112.363h-.097l-.145-.528h.116l.085.361.109-.361h.089z" transform="matrix(15 0 0 15 90.072 29.0649)"/><path d="m.187 0h-.119v-.528h.119zm-.126-.666c0-.018.006-.033.017-.045.012-.012.028-.018.05-.018.021 0 .038.006.05.018.011.012.017.027.017.045s-.006.033-.017.045c-.012.012-.029.018-.05.018-.022 0-.038-.006-.05-.018-.011-.012-.017-.027-.017-.045z" transform="matrix(15 0 0 15 101.219 29.0649)"/><path d="m.209-.657v.129h.094v.088h-.094v.294c0 .021.004.035.012.044s.023.014.043.014c.014 0 .028-.002.042-.005v.092c-.027.007-.053.011-.078.011-.092 0-.137-.051-.137-.151v-.299h-.087v-.088h.087v-.129z" transform="matrix(15 0 0 15 105.05 29.0649)"/><path d="m.178-.471c.038-.045.087-.067.147-.067.112 0 .169.064.171.193v.345h-.119v-.341c0-.036-.007-.062-.023-.077s-.039-.023-.07-.023c-.047 0-.083.021-.106.064v.377h-.119v-.75h.119z" transform="matrix(15 0 0 15 110.038 29.0649)"/><path d="m.617-.092c-.026.033-.061.059-.107.076-.045.017-.097.026-.155.026-.06 0-.112-.014-.158-.041s-.082-.065-.106-.116c-.025-.05-.038-.109-.039-.176v-.055c0-.108.025-.192.077-.252.051-.061.123-.091.215-.091.079 0 .142.02.189.059.046.039.074.095.084.169h-.121c-.014-.086-.064-.129-.149-.129-.056 0-.098.02-.127.06-.028.04-.043.099-.044.176v.054c0 .077.016.137.048.179.033.043.078.064.135.064.064 0 .108-.014.135-.043v-.139h-.146v-.094h.269z" transform="matrix(15 0 0 15 122.101 29.0649)"/><path d="m.039-.269c0-.052.01-.098.03-.14.021-.041.05-.073.087-.096.037-.022.08-.033.128-.033.071 0 .129.023.173.069.045.046.069.107.072.182l.001.028c0 .052-.01.099-.03.14s-.049.073-.086.095c-.037.023-.081.034-.129.034-.075 0-.135-.025-.179-.075-.045-.049-.067-.116-.067-.198zm.118.01c0 .055.011.097.034.128.022.031.054.046.094.046s.071-.016.093-.047.034-.077.034-.137c0-.053-.012-.096-.035-.127s-.054-.047-.093-.047-.07.016-.093.046c-.022.031-.034.077-.034.138z" transform="matrix(15 0 0 15 132.311 29.0649)"/><path d="m.039-.269c0-.052.01-.098.03-.14.021-.041.05-.073.087-.096.037-.022.08-.033.128-.033.071 0 .129.023.173.069.045.046.069.107.072.182l.001.028c0 .052-.01.099-.03.14s-.049.073-.086.095c-.037.023-.081.034-.129.034-.075 0-.135-.025-.179-.075-.045-.049-.067-.116-.067-.198zm.118.01c0 .055.011.097.034.128.022.031.054.046.094.046s.071-.016.093-.047.034-.077.034-.137c0-.053-.012-.096-.035-.127s-.054-.047-.093-.047-.07.016-.093.046c-.022.031-.034.077-.034.138z" transform="matrix(15 0 0 15 140.851 29.0649)"/><path d="m.04-.268c0-.082.019-.148.058-.197.038-.049.09-.073.153-.073.061 0 .108.021.143.063l.005-.053h.107v.512c0 .069-.022.124-.065.164s-.101.06-.174.06c-.039 0-.077-.008-.114-.024s-.065-.037-.084-.063l.056-.072c.036.044.081.065.135.065.039 0 .07-.01.093-.032.023-.021.034-.052.034-.094v-.035c-.034.038-.08.057-.137.057-.061 0-.112-.025-.151-.074s-.059-.117-.059-.204zm.118.01c0 .053.011.095.033.125.021.031.051.046.09.046.048 0 .083-.02.106-.061v-.233c-.022-.04-.057-.06-.105-.06-.039 0-.07.016-.091.046-.022.031-.033.077-.033.137z" transform="matrix(15 0 0 15 149.391 29.0649)"/><path d="m158.914 17.8149h1.785v11.25h-1.785z" stroke-width="15"/><path d="m.293.01c-.075 0-.136-.024-.182-.071-.047-.048-.07-.111-.07-.189v-.015c0-.053.01-.1.03-.141.02-.042.049-.074.086-.097.037-.024.078-.035.123-.035.072 0 .127.023.167.069.039.046.058.111.058.195v.047h-.345c.004.044.018.079.044.104.025.025.058.038.096.038.055 0 .099-.022.133-.066l.064.061c-.021.032-.049.056-.085.074-.035.017-.075.026-.119.026zm-.014-.453c-.032 0-.059.012-.079.034-.02.023-.032.055-.038.096h.226v-.009c-.002-.04-.013-.07-.032-.09-.018-.021-.044-.031-.077-.031z" transform="matrix(15 0 0 15 161.725 29.0649)"/></g></svg>