<?xml version="1.0" encoding="UTF-8" standalone="no"?>
<!DOCTYPE svg PUBLIC "-//W3C//DTD SVG 1.1//EN" "http://www.w3.org/Graphics/SVG/1.1/DTD/svg11.dtd">
<svg width="100%" height="100%" viewBox="0 0 136 136" version="1.1" xmlns="http://www.w3.org/2000/svg" xmlns:xlink="http://www.w3.org/1999/xlink" xml:space="preserve" xmlns:serif="http://www.serif.com/" style="fill-rule:evenodd;clip-rule:evenodd;stroke-linejoin:round;stroke-miterlimit:2;">
    <g transform="matrix(1,0,0,1,-234.634,-16.9872)">
        <g transform="matrix(0.532691,0,0,0.530529,237.136,33.4804)">
            <path d="M59.946,59.702L51.942,38.445L43.94,59.702L59.946,59.702ZM37.687,4.057L66.699,4.057L103.588,92.215L71.826,92.215L67.199,80.46L36.562,80.46L32.061,92.215L0.799,92.215L37.687,4.057ZM107.333,92.216L135.719,92.216L135.719,0.931L107.333,0.931L107.333,92.216ZM148.474,92.216L176.861,92.216L176.861,0.931L148.474,0.931L148.474,92.216Z" style="fill:rgb(255,255,254);"/>
        </g>
        <g transform="matrix(0.532691,0,0,0.530529,144.402,86.1478)">
            <path d="M264.427,52.951L264.427,4.682L294.189,4.682L294.189,52.576C294.189,63.455 299.816,68.082 307.695,68.082C315.573,68.082 321.199,63.829 321.199,53.2L321.199,4.682L350.96,4.682L350.96,52.326C350.96,82.212 333.579,93.967 307.444,93.967C281.31,93.967 264.427,81.961 264.427,52.951M354.552,83.963L364.18,67.831C372.434,72.958 381.688,75.459 389.441,75.459C392.192,75.459 393.567,74.835 393.567,73.208L393.567,72.958C393.567,71.582 392.317,70.708 385.439,68.957C368.182,64.705 357.552,60.078 357.552,45.949L357.552,45.698C357.552,30.692 369.558,22.313 387.315,22.313C398.569,22.313 409.698,25.19 417.951,30.192L408.947,47.074C401.695,43.072 392.941,40.696 387.19,40.696C384.439,40.696 383.188,41.447 383.188,42.821L383.188,43.072C383.188,44.447 384.688,45.323 391.566,47.074C408.823,51.325 419.202,56.077 419.202,70.082L419.202,70.333C419.202,85.214 408.072,93.841 389.566,93.841C376.311,93.841 364.305,90.465 354.552,83.963" style="fill:rgb(255,255,254);"/>
        </g>
        <g transform="matrix(0.533177,0,0,0.533177,142.056,86.1913)">
            <path d="M194.38,63.765C194.38,65.958 194.792,67.603 195.618,68.699C196.443,69.796 197.681,70.344 199.334,70.344C202.389,70.344 204.884,68.04 206.819,63.432C208.753,58.823 209.721,54.93 209.721,51.75C209.721,49.335 209.259,47.585 208.335,46.501C207.411,45.417 206.344,44.875 205.137,44.875C201.884,44.875 199.278,47.291 197.32,52.119C195.359,56.95 194.38,60.832 194.38,63.765M183.549,60.03C183.549,57.443 184.307,54.665 185.822,51.694C187.338,48.725 189.716,46.256 192.957,44.284C196.197,42.311 200.048,41.326 204.509,41.326C210.053,41.326 214.126,42.644 216.726,45.281C219.326,47.919 220.626,51.11 220.626,54.855C220.626,60.007 218.63,64.473 214.637,68.255C210.645,72.039 205.543,73.931 199.334,73.931C194.823,73.931 191.065,72.789 188.058,70.511C185.052,68.231 183.549,64.738 183.549,60.03" style="fill:rgb(108,162,203);"/>
            <path d="M240.239,46.612L236.543,63.173C234.397,72.735 231.545,79.869 227.984,84.577C224.423,89.283 219.587,91.637 213.475,91.637C210.568,91.637 208.442,91.083 207.098,89.973C205.756,88.865 205.084,87.521 205.084,85.945C205.084,84.515 205.607,83.313 206.655,82.34C207.703,81.367 208.916,80.879 210.296,80.879C213.155,80.879 214.806,82.408 215.25,85.465C215.471,87.017 216.149,87.793 217.283,87.793C218.442,87.793 219.494,86.758 220.444,84.688C221.392,82.618 222.544,78.44 223.899,72.156L225.046,66.796C225.391,65.514 225.637,64.504 225.785,63.765L229.518,46.612L224.713,46.612L225.97,42.509L230.369,42.509C232.684,34.081 235.39,28.493 238.482,25.745C241.575,22.997 245.266,21.623 249.554,21.623C252.413,21.623 254.748,22.177 256.559,23.285C258.37,24.395 259.276,25.874 259.276,27.723C259.276,28.955 258.838,30.033 257.965,30.957C257.089,31.881 255.974,32.343 254.619,32.343C252.671,32.343 250.996,30.975 249.591,28.24C248.557,26.194 247.509,25.172 246.449,25.172C245.217,25.172 244.269,26.811 243.603,30.088L241.163,42.509L246.671,42.509L245.414,46.612L240.239,46.612Z" style="fill:rgb(108,162,203);"/>
        </g>
    </g>
</svg>
